<svg width="22" height="22" viewBox="0 0 22 22" fill="none" xmlns="http://www.w3.org/2000/svg">
    <circle cx="11" cy="11" r="11" fill="#3F8AE0"/>
    <mask id="mask0" style="mask-type:alpha" maskUnits="userSpaceOnUse" x="0" y="0" width="22" height="22">
        <circle cx="11" cy="11" r="11" fill="#3F8AE0"/>
    </mask>
    <g mask="url(#mask0)">
        <path fill-rule="evenodd" clip-rule="evenodd" d="M11.0889 6.14655C8.40845 6.14655 6.23549 8.31952 6.23549 11C6.23549 13.6805 8.40845 15.8534 11.0889 15.8534C12.5755 15.8534 13.9053 15.1862 14.797 14.1317C15.1179 13.7521 15.6858 13.7046 16.0654 14.0255C16.4449 14.3465 16.4924 14.9144 16.1715 15.2939C14.9524 16.7356 13.1274 17.6534 11.0889 17.6534C7.41434 17.6534 4.43549 14.6746 4.43549 11C4.43549 7.3254 7.41434 4.34655 11.0889 4.34655C13.1274 4.34655 14.9524 5.26437 16.1715 6.70609C16.4924 7.08564 16.4449 7.65351 16.0654 7.97445C15.6858 8.29539 15.1179 8.24787 14.797 7.86832C13.9053 6.81378 12.5755 6.14655 11.0889 6.14655Z" fill="#00EDFF"/>
        <path fill-rule="evenodd" clip-rule="evenodd" d="M10.1 23L10.1 -1L11.9 -1L11.9 23L10.1 23Z" fill="#00EDFF"/>
    </g>
</svg>
